<svg width="70" height="70" viewBox="0 0 70 70" fill="none" xmlns="http://www.w3.org/2000/svg">
<g clip-path="url(#clip0_25_1142)">
<path fill-rule="evenodd" clip-rule="evenodd" d="M28.2636 6.72984L30.9351 8.87715L30.0359 12.1846C29.8835 12.7452 30.0888 13.3279 30.5585 13.6694C30.7947 13.8425 31.0799 13.9359 31.3727 13.9363C31.6356 13.9363 31.8992 13.8603 32.1324 13.7077L35 11.8305L37.8678 13.7077C38.354 14.0258 38.9716 14.0112 39.4424 13.669C39.9117 13.3275 40.1167 12.7449 39.9644 12.1845L39.0652 8.87715L41.7365 6.72998C42.1893 6.36644 42.366 5.77445 42.1869 5.22197C42.0075 4.66908 41.5165 4.29352 40.936 4.26535L37.5126 4.09842L36.2961 0.894277V0.894004C36.0896 0.350957 35.581 0 35.0001 0C34.4191 0 33.9103 0.350957 33.7042 0.894004L32.4876 4.09842L29.0643 4.26535C28.4837 4.29352 27.9926 4.66908 27.8138 5.22088C27.6337 5.77391 27.8106 6.36644 28.2636 6.72984ZM33.1179 6.25775C33.3873 6.24477 33.6471 6.15343 33.8653 5.99494C34.0835 5.83645 34.2508 5.6177 34.3465 5.36553L35 3.6441L35.6535 5.36566C35.7492 5.61775 35.9163 5.83644 36.1345 5.99491C36.3526 6.15337 36.6123 6.24472 36.8816 6.25775L38.7206 6.34744L37.2855 7.50094C37.0753 7.66986 36.9189 7.89645 36.8356 8.15291C36.7522 8.40938 36.7455 8.6846 36.8163 8.94482L37.2993 10.7216L35.7596 9.71373C35.5339 9.56571 35.27 9.48681 35.0001 9.48671C34.7303 9.48661 34.4662 9.56533 34.2405 9.71318L32.7 10.7216L33.1831 8.94428C33.2538 8.68412 33.2471 8.40898 33.1637 8.15261C33.0803 7.89623 32.924 7.66975 32.7138 7.50094L31.2788 6.34744L33.1179 6.25775ZM43.6812 9.6868L46.3528 11.834L45.4536 15.1415C45.3013 15.702 45.5065 16.2847 45.9763 16.6262C46.2125 16.7993 46.4976 16.8927 46.7905 16.8931C47.0534 16.8931 47.317 16.8171 47.5502 16.6645L50.4179 14.7874L53.2857 16.6645C53.7716 16.9825 54.3889 16.9678 54.8603 16.6258C55.3298 16.2843 55.5347 15.7016 55.3823 15.1415L54.4831 11.834L57.1544 9.68693C57.6075 9.32271 57.7841 8.73045 57.6048 8.17879C57.4254 7.6259 56.9344 7.25033 56.3539 7.22217L52.9305 7.05523L51.714 3.85109V3.85082C51.5077 3.30777 50.9991 2.95682 50.4182 2.95682C49.8371 2.95682 49.3284 3.30777 49.1222 3.85082L47.9057 7.05523L44.4824 7.22217C43.9017 7.25033 43.4106 7.6259 43.2318 8.17769C43.0519 8.73004 43.2283 9.32217 43.6812 9.6868ZM48.5358 9.21443C48.8052 9.20145 49.065 9.11011 49.2832 8.95162C49.5014 8.79313 49.6687 8.57437 49.7644 8.32221L50.4177 6.60078L51.0714 8.32234C51.1671 8.57443 51.3342 8.79312 51.5524 8.95159C51.7706 9.11005 52.0302 9.2014 52.2995 9.21443L54.1385 9.30412L52.7033 10.4578C52.493 10.6266 52.3366 10.8532 52.2533 11.1096C52.17 11.3661 52.1633 11.6413 52.2342 11.9015L52.7172 13.6783L51.1775 12.6704C50.9519 12.5223 50.6879 12.4433 50.418 12.4432C50.1481 12.4431 49.884 12.5219 49.6583 12.6699L48.1179 13.6782L48.601 11.9012C48.6717 11.641 48.6649 11.3659 48.5816 11.1094C48.4982 10.853 48.3419 10.6265 48.1317 10.4576L46.6965 9.30412L48.5358 9.21443ZM12.8455 9.6868L15.517 11.834L14.6182 15.1405C14.4652 15.7015 14.6702 16.2846 15.1405 16.6264C15.3768 16.7994 15.6619 16.8928 15.9548 16.8934C16.2178 16.8934 16.4814 16.8174 16.7144 16.6646L19.5821 14.7875L22.4499 16.6646C22.936 16.9829 23.5536 16.968 24.0239 16.6264C24.4938 16.285 24.6989 15.7021 24.5465 15.1416L23.6473 11.8341L26.3194 9.68652C26.772 9.3223 26.9483 8.73018 26.769 8.17893C26.5896 7.62603 26.0986 7.25047 25.5181 7.2223L22.0947 7.05537L20.8782 3.85123V3.85096C20.6718 3.30791 20.1633 2.95695 19.5823 2.95695C19.0007 2.95695 18.4919 3.30832 18.2867 3.85096L17.07 7.05537L13.6466 7.2223C13.0666 7.25047 12.5756 7.62562 12.3956 8.17893C12.2163 8.73113 12.393 9.32299 12.8455 9.6868ZM17.7 9.21443C17.9694 9.20153 18.2292 9.11021 18.4474 8.95171C18.6656 8.79321 18.8328 8.57441 18.9284 8.32221L19.5821 6.60092L20.2356 8.32234C20.3313 8.57443 20.4984 8.79312 20.7166 8.95159C20.9347 9.11005 21.1944 9.2014 21.4637 9.21443L23.3027 9.30412L21.8668 10.458C21.6569 10.6271 21.5008 10.8536 21.4176 11.1099C21.3344 11.3663 21.3278 11.6413 21.3984 11.9014L21.8814 13.6782L20.3417 12.6703C20.116 12.5223 19.8521 12.4434 19.5822 12.4433C19.3124 12.4432 19.0483 12.5219 18.8226 12.6697L17.2822 13.678L17.7652 11.9011C17.836 11.6409 17.8292 11.3657 17.7459 11.1093C17.6625 10.8528 17.5061 10.6263 17.2959 10.4575L15.8607 9.30398L17.7 9.21443ZM23.8247 26.6104C24.6453 25.7566 25.1516 24.5983 25.1516 23.3234C25.1516 20.7056 23.0218 18.5757 20.4039 18.5757C17.786 18.5757 15.6562 20.7055 15.6562 23.3234C15.6562 24.5987 16.1626 25.7574 16.9837 26.6112C14.855 27.5643 13.181 29.3936 12.4544 31.7401C12.1928 32.5844 12.3424 33.4749 12.8644 34.1831C13.3865 34.8914 14.193 35.2976 15.0772 35.2976H24.3024V36.1562C24.3024 38.1827 25.9512 39.8314 27.9777 39.8314H42.0225C44.0487 39.8314 45.6975 38.1827 45.6977 36.1562V35.298H54.923C55.8072 35.298 56.6136 34.8917 57.1358 34.1835C57.6578 33.4752 57.8073 32.5847 57.5457 31.7403C56.8192 29.3938 55.1451 27.5645 53.0165 26.6115C53.8376 25.7575 54.344 24.599 54.344 23.3237C54.344 20.7059 52.2142 18.576 49.5963 18.576C46.9784 18.576 44.8486 20.7058 44.8486 23.3237C44.8486 24.5986 45.3548 25.7567 46.1754 26.6105C45.1421 27.0746 44.2159 27.7471 43.4547 28.5858C42.2672 27.077 40.6968 25.9141 38.9071 25.2185C40.174 24.1216 40.9777 22.5035 40.9777 20.7002C40.9777 17.4042 38.2963 14.7224 35.0001 14.7224C31.704 14.7224 29.0224 17.404 29.0224 20.7002C29.0224 22.5035 29.8261 24.1216 31.093 25.2185C29.3033 25.9142 27.7329 27.077 26.5454 28.5858C25.7842 27.747 24.858 27.0745 23.8247 26.6104ZM20.4039 20.7632C21.8155 20.7632 22.9641 21.9116 22.9641 23.3234C22.9641 24.7352 21.8156 25.8836 20.4039 25.8836C18.9921 25.8836 17.8437 24.7352 17.8437 23.3234C17.8437 21.9116 18.9923 20.7632 20.4039 20.7632ZM14.6253 32.8852C14.5728 32.8148 14.538 32.7328 14.5239 32.6461C14.5097 32.5593 14.5166 32.4705 14.544 32.387C15.3436 29.8054 17.6983 28.071 20.4037 28.071C22.3707 28.071 24.1672 28.9863 25.3222 30.5435C24.927 31.3591 24.6369 32.2215 24.459 33.1101H15.0772C14.9893 33.1116 14.9024 33.092 14.8238 33.0529C14.7451 33.0137 14.6771 32.9562 14.6253 32.8852ZM47.036 23.3237C47.036 21.912 48.1844 20.7635 49.5962 20.7635C51.008 20.7635 52.1564 21.9119 52.1564 23.3237C52.1564 24.7354 51.008 25.8839 49.5962 25.8839C48.1844 25.8839 47.036 24.7353 47.036 23.3237ZM49.5962 28.0712C52.3017 28.0712 54.6566 29.8058 55.456 32.3874C55.4833 32.4709 55.4902 32.5597 55.4761 32.6464C55.462 32.7331 55.4272 32.8152 55.3748 32.8856C55.323 32.9566 55.2549 33.0142 55.1762 33.0533C55.0976 33.0925 55.0106 33.1122 54.9228 33.1107H45.541C45.363 32.222 45.0729 31.3595 44.6777 30.5438C45.8326 28.9867 47.6292 28.0712 49.5962 28.0712ZM35.0001 16.9099C37.09 16.9099 38.7902 18.6103 38.7902 20.7002C38.7902 22.7901 37.09 24.4903 35.0001 24.4903C32.9102 24.4903 31.2099 22.7901 31.2099 20.7002C31.2099 18.6103 32.9102 16.9099 35.0001 16.9099ZM35 26.6777C39.3696 26.6777 43.0181 29.9351 43.51 34.264V36.1562C43.5099 36.9765 42.8426 37.644 42.0224 37.644H27.9777C27.1574 37.644 26.4899 36.9767 26.4899 36.1564V34.264C26.9818 29.9351 30.6303 26.6777 35 26.6777ZM67.1345 44.5181C66.5075 43.4712 63.9354 40.3625 57.1621 44.3075L45.2727 51.2323C44.7088 51.5607 44.1357 51.7975 43.5393 51.9449C43.7524 51.5858 43.9207 51.1839 44.039 50.7425C44.6519 48.4542 43.2925 46.0652 40.9441 45.3038C40.8971 45.2888 40.8493 45.2767 40.8008 45.2678C37.3872 44.6522 34.0167 43.4336 31.3083 42.4546C30.3662 42.114 29.4765 41.7923 28.7195 41.5469C25.6604 40.5542 22.9 41.7808 20.6023 43.1111L11.7906 48.2128L10.8434 46.5391C10.4703 45.8795 9.86067 45.4043 9.12718 45.2011C8.39396 44.998 7.62642 45.0915 6.96716 45.4649L3.63136 47.3528C2.26649 48.1253 1.78442 49.8641 2.55702 51.2291L12.3643 68.558C12.8869 69.4816 13.852 70.0008 14.8443 70.0008C15.3186 70.0008 15.7992 69.8821 16.2405 69.6324L19.5765 67.7444C20.2359 67.3712 20.7111 66.7617 20.9142 66.0282C21.1175 65.2947 21.024 64.5275 20.6507 63.868L19.791 62.3491L21.7601 61.2123L36.9724 65.2883C37.8359 65.5197 38.6837 65.6352 39.5132 65.6352C41.1669 65.6352 42.748 65.1759 44.236 64.2597L65.8123 50.9739C67.7965 49.7526 68.4266 46.6755 67.1345 44.5181ZM18.8066 65.444C18.7841 65.5271 18.7454 65.605 18.6926 65.673C18.6399 65.7411 18.5741 65.7981 18.4993 65.8406L15.1633 67.7287C15.0883 67.771 15.0056 67.798 14.9201 67.8082C14.8345 67.8184 14.7478 67.8115 14.665 67.788C14.5818 67.7655 14.504 67.7268 14.4359 67.674C14.3678 67.6213 14.3108 67.5556 14.2682 67.4807L4.46083 50.1516C4.41852 50.0765 4.39149 49.9939 4.38131 49.9083C4.37112 49.8228 4.37798 49.7361 4.40149 49.6532C4.42402 49.5701 4.46279 49.4922 4.51556 49.4241C4.56833 49.356 4.63407 49.299 4.70898 49.2565L8.04478 47.3685C8.14202 47.3135 8.25186 47.2846 8.3636 47.2846C8.42349 47.2846 8.48364 47.2928 8.54312 47.3093C8.62626 47.3318 8.70412 47.3705 8.7722 47.4233C8.84027 47.476 8.89722 47.5418 8.93974 47.6167L17.3566 62.4885C17.357 62.4893 17.3572 62.4902 17.3578 62.4909L17.3587 62.4925L18.7471 64.9455C18.8327 65.0966 18.8538 65.2736 18.8066 65.444ZM64.6656 49.1113L43.0893 62.3971C41.3879 63.4447 39.52 63.7068 37.5388 63.1753L21.8889 58.982C21.7502 58.9448 21.6055 58.9353 21.4631 58.954C21.3207 58.9728 21.1834 59.0194 21.059 59.0912L18.7136 60.4451L12.8682 50.1167L21.6985 45.0043C23.6732 43.8609 25.8089 42.9023 28.0447 43.6279C28.7671 43.8621 29.6001 44.1632 30.5647 44.5119C33.3298 45.5116 36.7662 46.7538 40.3332 47.4064C41.5545 47.8346 42.2374 49.0141 41.9259 50.1766C41.5161 51.7057 40.2399 51.8969 39.224 51.7804C37.4747 51.4207 35.8117 50.946 34.052 50.4435C33.2166 50.2049 32.3527 49.9581 31.4646 49.7202C31.1844 49.6452 30.8858 49.6845 30.6346 49.8295C30.3834 49.9745 30.2001 50.2134 30.125 50.4936C30.0499 50.7738 30.0892 51.0724 30.2343 51.3236C30.3793 51.5748 30.6182 51.7581 30.8984 51.8332C31.7692 52.0665 32.6242 52.3106 33.4511 52.5469C35.2663 53.0653 36.9809 53.5551 38.828 53.9327C38.8351 53.9342 38.8422 53.9346 38.8491 53.936C38.8567 53.9373 38.8638 53.9395 38.8714 53.9407L40.3498 54.1811C42.5702 54.5367 44.5405 54.1903 46.3733 53.123L58.2627 46.1982C61.6645 44.2173 64.2794 44.0094 65.2576 45.6425C65.9307 46.7656 65.6319 48.5164 64.6656 49.1113ZM9.12622 50.916C9.15047 51.0715 9.14367 51.2302 9.1062 51.3831C9.06873 51.5359 9.00135 51.6798 8.90794 51.8065C8.81452 51.9331 8.69694 52.04 8.56198 52.121C8.42701 52.2019 8.27735 52.2553 8.12163 52.2781C7.96591 52.3008 7.80722 52.2925 7.65473 52.2536C7.50225 52.2147 7.35899 52.1459 7.23323 52.0513C7.10748 51.9567 7.00172 51.8381 6.92207 51.7023C6.84242 51.5666 6.79046 51.4164 6.76919 51.2605C6.72676 50.9495 6.80884 50.6342 6.99758 50.3834C7.18632 50.1325 7.46646 49.9663 7.77708 49.9209C8.0877 49.8755 8.40369 49.9546 8.65634 50.1409C8.90898 50.3273 9.07785 50.6058 9.12622 50.916Z" fill="url(#paint0_linear_25_1142)"/>
</g>
<defs>
<linearGradient id="paint0_linear_25_1142" x1="2.19417" y1="35.007" x2="67.7978" y2="35.007" gradientUnits="userSpaceOnUse">
<stop stop-color="#3CAB90"/>
<stop offset="1" stop-color="#0E6752"/>
</linearGradient>
<clipPath id="clip0_25_1142">
<rect width="70" height="70" fill="white"/>
</clipPath>
</defs>
</svg>
