<svg width="71" height="70" viewBox="0 0 71 70" fill="none" xmlns="http://www.w3.org/2000/svg">
<g clip-path="url(#clip0_25_1159)">
<path d="M35.3335 69.9907C49.8075 69.9907 61.5835 58.2147 61.5835 43.7407C61.5835 32.747 54.7868 23.3158 45.1773 19.4131V18.5845C45.1773 15.6584 42.6202 14.5529 40.6863 14.281C40.1788 12.1612 38.1068 11.289 36.4357 11.028V9.65537C38.782 9.46807 40.6356 8.64584 41.9541 7.20209C44.2826 4.65256 43.992 1.1341 43.9788 0.985625C43.9275 0.422207 43.4549 -0.00927734 42.8893 -0.00927734C40.0325 -0.00927734 37.8173 0.830313 36.3049 2.48639C35.9192 2.90871 35.6111 3.35838 35.3559 3.8142C35.1008 3.35838 34.7927 2.90871 34.407 2.48639C32.8946 0.830313 30.6792 -0.00927734 27.8226 -0.00927734C27.257 -0.00927734 26.7844 0.422207 26.7331 0.985625C26.7197 1.1341 26.4292 4.65242 28.7578 7.20209C30.0709 8.6401 31.9157 9.46041 34.2484 9.65209V11.0254C32.5744 11.2829 30.49 12.1538 29.9807 14.281C28.0468 14.5528 25.4898 15.6583 25.4898 18.5845V19.4131C15.8802 23.3159 9.08351 32.747 9.08351 43.7407C9.08351 58.2147 20.8594 69.9907 35.3335 69.9907ZM11.2804 44.1155L13.781 45.9874C14.8219 46.7677 15.992 47.3482 17.2631 47.714L19.3427 48.3047C20.1625 48.5423 20.7937 49.1735 21.0293 49.987L21.6712 52.2546C21.9746 53.311 22.5422 54.2765 23.3091 55.0434C24.8129 56.5623 26.7515 59.7911 23.6256 64.7522C16.3652 60.6904 11.417 52.9779 11.2804 44.1155ZM25.59 65.7344C29.5011 59.3656 26.4401 55.0964 24.8595 53.5007C24.3431 52.9843 23.9783 52.3621 23.7753 51.655L23.1323 49.3847C22.6852 47.8408 21.4959 46.6515 19.9455 46.2023L17.8643 45.6112C16.8532 45.3201 15.9208 44.8581 15.0926 44.2365L11.382 41.4586C11.5781 39.3854 12.0351 37.3871 12.7253 35.4996C14.0236 35.2963 15.2792 35.4493 16.597 35.6347C17.5348 35.7666 18.5094 35.9039 19.5343 35.9039C22.0118 35.9039 24.7814 35.1023 28.0316 31.4877C30.0802 29.2094 30.9316 27.0096 30.5615 24.9498C30.2909 23.4452 29.3522 22.0655 27.8264 20.8835C29.6598 20.2798 31.5892 19.8925 33.5861 19.7484C33.7122 22.883 33.8106 29.4234 32.6726 32.8448C31.6519 35.9017 32.9603 36.9357 33.5702 37.238C33.9067 37.4052 34.2768 37.4857 34.6715 37.4857C36.4147 37.4857 38.6246 35.9107 40.4319 33.2645C40.6855 32.8928 41.1107 32.6621 41.5411 32.6621H45.9637C47.7469 32.6621 49.4926 31.939 50.7542 30.6781L53.4739 27.9583C56.1667 31.0495 58.0873 34.829 58.9241 38.9984C48.6197 37.6336 41.8249 38.112 38.7341 40.4316C36.6492 41.9954 35.47 43.7555 35.2302 45.6633C34.9514 47.8796 35.9965 49.7178 36.9226 50.8698C37.0593 51.0396 37.0588 51.2922 36.922 51.4839L35.7743 53.0941C34.2298 55.2544 33.693 57.9737 34.3014 60.5537L36.0044 67.786C35.7809 67.7921 35.5583 67.8031 35.3332 67.8031C31.8662 67.8032 28.571 67.0602 25.59 65.7344ZM34.7481 33.5364C35.9811 29.8303 35.9199 23.2771 35.7733 19.6893C42.0467 19.8028 47.7384 22.3267 51.964 26.3751L49.2077 29.131C48.3538 29.9849 47.1713 30.4746 45.9638 30.4746H41.5412C40.3813 30.4746 39.2912 31.0562 38.6258 32.0309C36.7412 34.7914 34.8795 35.4489 34.5548 35.2881C34.4956 35.2177 34.3556 34.7135 34.7481 33.5364ZM38.2134 67.6248L36.4304 60.0524C35.9668 58.0859 36.3764 56.0133 37.5552 54.3651L38.7034 52.7539C39.4068 51.768 39.3752 50.4297 38.6275 49.4993C37.9669 48.6774 37.2176 47.3919 37.4007 45.9361C37.5635 44.639 38.4538 43.3758 40.0469 42.1812C42.6521 40.229 49.4659 39.9066 59.2674 41.253C59.3517 42.071 59.3957 42.9007 59.3957 43.7406C59.396 56.0337 50.1277 66.1964 38.2134 67.6248ZM37.9321 3.94805C38.8219 2.98145 40.1101 2.40682 41.7698 2.23373C41.6726 3.19555 41.3474 4.63055 40.3268 5.74029C39.437 6.70689 38.1488 7.28152 36.4891 7.45461C36.5864 6.49279 36.9117 5.05779 37.9321 3.94805ZM30.3848 5.74029C29.3637 4.63055 29.039 3.19445 28.9418 2.23373C30.6017 2.40682 31.8897 2.98145 32.7795 3.94805C33.8001 5.05779 34.1253 6.49279 34.2225 7.45461C32.5628 7.28166 31.2746 6.70703 30.3848 5.74029ZM27.6773 18.5845C27.6773 16.4424 30.8277 16.3981 30.9585 16.397C31.5625 16.397 32.0523 15.9072 32.0523 15.3032C32.0523 13.1611 35.2027 13.1168 35.3304 13.1157C35.4643 13.1168 38.6148 13.1611 38.6148 15.3032C38.6148 15.9045 39.1039 16.3933 39.7054 16.397C39.8393 16.3981 42.9898 16.4424 42.9898 18.5845V18.6327C40.5663 17.8921 37.9962 17.4907 35.3335 17.4907C32.6708 17.4907 30.1007 17.8923 27.6773 18.6327V18.5845ZM25.3537 21.854C26.6819 22.6207 28.1301 23.788 28.4088 25.3371C28.6534 26.6979 27.9789 28.275 26.4051 30.0256C22.5909 34.2687 19.9547 33.8997 16.9015 33.4688C15.8719 33.3244 14.8197 33.1773 13.7072 33.2013C16.1535 28.2018 20.2841 24.1749 25.3537 21.854Z" fill="url(#paint0_linear_25_1159)"/>
<path d="M32.3978 43.0063C32.3325 42.6127 32.1484 42.2549 31.8652 41.9719L29.8523 39.959C29.4923 39.599 29.0144 39.4009 28.5054 39.4009H25.4174C24.5416 39.4009 23.7816 39.9942 23.569 40.8445L23.0355 42.9802C22.8582 43.6845 23.1044 44.4409 23.6636 44.9071L27.9147 48.4495C28.2565 48.7347 28.6897 48.8916 29.1351 48.8916H31.1293C31.6905 48.8916 32.2208 48.6459 32.5841 48.2171C32.9461 47.7887 33.101 47.2258 33.0086 46.6731L32.3978 43.0063ZM29.2378 46.704L25.2003 43.34L25.6382 41.5884H28.3886L30.2551 43.4549L30.7961 46.7041H29.2378V46.704Z" fill="url(#paint1_linear_25_1159)"/>
</g>
<defs>
<linearGradient id="paint0_linear_25_1159" x1="9.08802" y1="34.9973" x2="61.5744" y2="34.9973" gradientUnits="userSpaceOnUse">
<stop stop-color="#3CAB90"/>
<stop offset="1" stop-color="#0E6752"/>
</linearGradient>
<linearGradient id="paint1_linear_25_1159" x1="22.9797" y1="44.1471" x2="33.033" y2="44.1471" gradientUnits="userSpaceOnUse">
<stop stop-color="#3CAB90"/>
<stop offset="1" stop-color="#0E6752"/>
</linearGradient>
<clipPath id="clip0_25_1159">
<rect width="70" height="70" fill="white" transform="translate(0.333374)"/>
</clipPath>
</defs>
</svg>
