<svg width="78" height="78" viewBox="0 0 78 78" fill="none" xmlns="http://www.w3.org/2000/svg">
<rect x="11" y="11" width="56" height="56" rx="10" fill="#3CAB90"/>
<rect x="11" y="11" width="56" height="56" rx="10" stroke="#3CAB90" stroke-opacity="0.15" stroke-width="21"/>
<path d="M35.5 45.4167H29.0833M32.5833 39H27.3333M35.5 32.5833H29.6666M44.8333 28.5L37.1375 39.2742C36.7968 39.7511 36.6265 39.9895 36.6339 40.1883C36.6403 40.3614 36.7233 40.5226 36.8604 40.6285C37.0179 40.75 37.3109 40.75 37.897 40.75H43.6666L42.5 49.5L50.1958 38.7258C50.5364 38.2489 50.7068 38.0105 50.6994 37.8117C50.693 37.6386 50.61 37.4774 50.4729 37.3715C50.3154 37.25 50.0224 37.25 49.4363 37.25H43.6666L44.8333 28.5Z" stroke="white" stroke-width="2" stroke-linecap="round" stroke-linejoin="round"/>
</svg>
