<svg width="59" height="49" viewBox="0 0 59 49" fill="none" xmlns="http://www.w3.org/2000/svg">
<path d="M33.1925 48.5V34.0664C33.1925 25.0035 35.2739 17.6189 39.4366 11.9126C43.7089 6.0944 50.0078 2.29021 58.3333 0.5V11.4091C54.6088 12.3042 51.651 13.9825 49.4601 16.444C47.2692 18.7937 45.8451 21.6469 45.1878 25.0035H55.0469V48.5H33.1925ZM0 48.5V34.0664C0 25.0035 2.08138 17.6189 6.24413 11.9126C10.5164 6.0944 16.7606 2.29021 24.9765 0.5V11.4091C21.252 12.3042 18.2942 13.9825 16.1033 16.444C13.9124 18.7937 12.4883 21.6469 11.831 25.0035H21.6901V48.5H0Z" fill="#3CAB90"/>
</svg>
